<?xml version="1.0" encoding="utf-8"?>
<!-- Generator: Adobe Illustrator 23.0.2, SVG Export Plug-In . SVG Version: 6.00 Build 0)  -->
<svg version="1.1" id="Layer_1" xmlns="http://www.w3.org/2000/svg" xmlns:xlink="http://www.w3.org/1999/xlink" x="0px" y="0px"
	 viewBox="0 0 595.28 841.89" style="enable-background:new 0 0 595.28 841.89;" xml:space="preserve">
<style type="text/css">
	.st0{fill:none;}
	.st1{fill:none;stroke:#1E3250;stroke-width:20;stroke-miterlimit:10;}
	.st2{fill:none;stroke:#1E3250;stroke-width:30;stroke-linecap:round;stroke-miterlimit:10;}
	.st3{fill:#1E3250;}
	.st4{fill:none;stroke:#1E3250;stroke-width:10;stroke-miterlimit:10;}
	.st5{fill:none;stroke:#1E3250;stroke-width:5;stroke-miterlimit:10;}
	.st6{fill:none;stroke:#1E3250;stroke-width:20;stroke-linecap:round;stroke-miterlimit:10;}
	.st7{fill:none;stroke:#1E3250;stroke-width:7;stroke-miterlimit:10;}
	.st8{fill:none;stroke:#1E3250;stroke-width:12;stroke-miterlimit:10;}
	.st9{fill:none;stroke:#1E3250;stroke-width:30;stroke-miterlimit:10;}
</style>
<g>
	<polygon class="st1" points="454.31,671.39 140.96,671.39 140.96,460.89 297.64,371.71 454.31,460.89 	"/>
	<polyline class="st2" points="81.76,497.09 297.64,371.71 513.52,497.09 	"/>
	<polygon class="st3" points="349.1,329.87 349.1,401.29 388.74,424.08 388.74,329.87 	"/>
	<g>
		<path class="st3" d="M367.12,322.62c-3.86-2.62-7.16-6.02-10.08-9.75c-2.88-3.76-5.23-8-6.84-12.59c-0.81-2.29-1.4-4.68-1.76-7.11
			c-0.21-1.21-0.3-2.44-0.4-3.67c-0.02-1.23-0.09-2.47-0.01-3.7c0.07-2.47,0.46-4.93,1-7.34l0.45-1.8l0.56-1.76
			c0.37-1.21,0.8-2.25,1.21-3.36c1.64-4.39,3.58-8.67,5.64-12.84c2.07-4.17,4.32-8.2,6.35-12.2c2.02-4,3.68-8.03,4.35-12.37
			c0.69-4.34,0.23-8.91-0.46-13.5c1.96,4.2,3.3,8.81,3.4,13.69c0.07,4.88-1.28,9.7-2.97,14.09c-1.71,4.41-3.69,8.55-5.51,12.73
			c-1.83,4.16-3.62,8.31-5.19,12.55c-0.39,1.05-0.86,2.13-1.16,3.12l-0.5,1.52l-0.41,1.54c-0.3,1.02-0.47,2.08-0.69,3.12
			c-0.14,1.05-0.32,2.1-0.39,3.17c-0.13,1.06-0.12,2.13-0.16,3.19c0.05,1.07,0.03,2.14,0.14,3.21c0.18,2.14,0.5,4.28,1.03,6.39
			c1.03,4.23,2.68,8.38,4.8,12.34C361.61,315.26,364.17,319.04,367.12,322.62z"/>
	</g>
	<g>
		<path class="st3" d="M383.87,322.62c-2.23-1.72-4.11-3.9-5.79-6.2c-1.67-2.31-3.08-4.83-4.27-7.45
			c-2.39-5.24-3.79-10.95-4.32-16.71c-0.56-5.77-0.26-11.61,0.66-17.3c0.91-5.7,2.43-11.28,4.36-16.69
			c0.93-2.72,2.08-5.35,3.18-7.97c1.12-2.6,2.35-5.15,3.57-7.69c2.46-5.06,5.16-9.98,7.25-14.88c1.04-2.46,1.84-4.92,2.25-7.43
			c0.2-1.26,0.26-2.53,0.27-3.82c-0.04-1.29-0.16-2.59-0.38-3.89c-0.45-2.61-1.22-5.25-2.2-7.83c-0.94-2.61-2.07-5.17-3.18-7.76
			c3.53,4.39,6.71,9.16,8.61,14.79c0.92,2.81,1.4,5.87,1.24,8.94c-0.14,3.06-0.86,6.03-1.79,8.81c-0.93,2.79-2.05,5.43-3.21,8.01
			c-1.14,2.59-2.35,5.1-3.5,7.63c-2.36,5.04-4.66,10.05-6.58,15.14c-1.93,5.1-3.52,10.31-4.63,15.61c-0.59,2.65-0.95,5.33-1.28,8.01
			c-0.09,1.34-0.27,2.69-0.29,4.04l-0.09,2.03l0.01,2.03c0.06,5.4,0.86,10.81,2.45,16.03C377.88,313.23,380.26,318.31,383.87,322.62
			z"/>
	</g>
	<rect x="249.18" y="497.09" class="st4" width="96.92" height="96.92"/>
	<line class="st5" x1="249.18" y1="545.54" x2="346.1" y2="545.54"/>
	<line class="st5" x1="297.64" y1="497.09" x2="297.64" y2="594"/>
</g>
</svg>
